<svg xmlns="http://www.w3.org/2000/svg" width="48" height="48"><linearGradient id="prefix__a" x1="24" x2="24" y1="18" y2="30" gradientUnits="userSpaceOnUse"><stop offset=".233" stop-color="#41a5ee"/><stop offset=".317" stop-color="#3994de"/><stop offset=".562" stop-color="#2366b4"/><stop offset=".751" stop-color="#154a9b"/><stop offset=".86" stop-color="#103f91"/></linearGradient><path fill="url(#prefix__a)" d="M6 18h36v12H6z"/><linearGradient id="prefix__b" x1="24" x2="24" y1="6" y2="18" gradientUnits="userSpaceOnUse"><stop offset=".233" stop-color="#e8457c"/><stop offset=".272" stop-color="#e14177"/><stop offset=".537" stop-color="#b32c59"/><stop offset=".742" stop-color="#971e46"/><stop offset=".86" stop-color="#8c193f"/></linearGradient><path fill="url(#prefix__b)" d="M42 18H6V8a2 2 0 012-2h32a2 2 0 012 2v10z"/><linearGradient id="prefix__c" x1="24" x2="24" y1="30" y2="42" gradientUnits="userSpaceOnUse"><stop offset=".233" stop-color="#33c481"/><stop offset=".325" stop-color="#2eb173"/><stop offset=".566" stop-color="#228353"/><stop offset=".752" stop-color="#1b673f"/><stop offset=".86" stop-color="#185c37"/></linearGradient><path fill="url(#prefix__c)" d="M40 42H8a2 2 0 01-2-2V30h36v10a2 2 0 01-2 2z"/><path opacity=".05" d="M17 6h14v36H17z"/><path opacity=".07" d="M17.5 6h13v36h-13z"/><linearGradient id="prefix__d" x1="24" x2="24" y1="6" y2="42" gradientUnits="userSpaceOnUse"><stop offset=".039" stop-color="#f8c819"/><stop offset=".282" stop-color="#af4316"/></linearGradient><path fill="url(#prefix__d)" d="M18 6h12v36H18z"/><linearGradient id="prefix__e" x1="24" x2="24" y1="12" y2="42" gradientUnits="userSpaceOnUse"><stop offset="0" stop-color="#eaad29"/><stop offset=".245" stop-color="#d98e24"/><stop offset=".632" stop-color="#c0631c"/><stop offset=".828" stop-color="#b75219"/><stop offset=".871" stop-color="#a94917"/><stop offset=".949" stop-color="#943b13"/><stop offset="1" stop-color="#8c3612"/></linearGradient><path fill="url(#prefix__e)" d="M24 12a6 6 0 00-6 6v24h12V18a6 6 0 00-6-6z"/><path d="M20 32c-.73 0-1.41-.2-2-.55v1.14c.61.26 1.29.41 2 .41h8c.71 0 1.39-.15 2-.41v-1.14c-.59.35-1.27.55-2 .55h-8zm9-10v6c0 .55-.45 1-1 1h-2v-2c0-1.1-.9-2-2-2s-2 .9-2 2v2h-2c-.55 0-1-.45-1-1v-6c0-.55-.45-1-1-1v7c0 1.1.9 2 2 2h3v-3c0-.55.45-1 1-1s1 .45 1 1v3h3c1.1 0 2-.9 2-2v-7c-.55 0-1 .45-1 1z" opacity=".05"/><path d="M29.5 22v6c0 .83-.67 1.5-1.5 1.5h-2.5V27c0-.83-.67-1.5-1.5-1.5s-1.5.67-1.5 1.5v2.5H20c-.83 0-1.5-.67-1.5-1.5v-6c0-.28-.22-.5-.5-.5V28c0 1.1.9 2 2 2h3v-3c0-.55.45-1 1-1s1 .45 1 1v3h3c1.1 0 2-.9 2-2v-6.5c-.28 0-.5.22-.5.5zM20 32c-.73 0-1.41-.2-2-.55v.58c.6.3 1.28.47 2 .47h8c.72 0 1.4-.17 2-.47v-.58c-.59.35-1.27.55-2 .55h-8z" opacity=".07"/><linearGradient id="prefix__f" x1="24" x2="24" y1="21" y2="32" gradientUnits="userSpaceOnUse"><stop offset=".613" stop-color="#e6e6e6"/><stop offset=".785" stop-color="#e4e4e4"/><stop offset=".857" stop-color="#ddd"/><stop offset=".91" stop-color="#d1d1d1"/><stop offset=".953" stop-color="#bfbfbf"/><stop offset=".967" stop-color="#b8b8b8"/></linearGradient><path fill="url(#prefix__f)" d="M32 23v5c0 2.2-1.8 4-4 4h-8c-2.2 0-4-1.8-4-4v-5a2 2 0 012-2v7a2 2 0 002 2h3v-3a1 1 0 012 0v3h3a2 2 0 002-2v-7c1.1 0 2 .9 2 2z"/></svg>